<svg xmlns="http://www.w3.org/2000/svg" viewBox="0 0 90 112.5"><circle cx="45" cy="13" r="3"/><path d="M45 .5c-8.284 0-15 6.717-15 15.002v24.996C30 48.783 36.716 55.5 45 55.5s15-6.717 15-15.002V15.502C60 7.217 53.284.5 45 .5zm13 39.998C58 47.667 52.168 53.5 45 53.5s-13-5.833-13-13.002V15.502C32 8.333 37.832 2.5 45 2.5s13 5.833 13 13.002v24.996zM58.293 59.793L45 73.086 31.707 59.793a.999.999 0 1 0-1.414 1.414l14 14a.997.997 0 0 0 1.414 0l14-14a.999.999 0 1 0-1.414-1.414z"/><path d="M58.293 73.793L45 87.086 31.707 73.793a.999.999 0 1 0-1.414 1.414l14 14a.997.997 0 0 0 1.414 0l14-14a.999.999 0 1 0-1.414-1.414z"/><text y="105" font-size="5" font-weight="bold" font-family="'Helvetica Neue', Helvetica, Arial-Unicode, Arial, Sans-serif">Created by Jon Irvine</text><text y="110" font-size="5" font-weight="bold" font-family="'Helvetica Neue', Helvetica, Arial-Unicode, Arial, Sans-serif">from the Noun Project</text></svg>